<?xml version="1.0" standalone="no"?><!DOCTYPE svg PUBLIC "-//W3C//DTD SVG 1.1//EN" "http://www.w3.org/Graphics/SVG/1.1/DTD/svg11.dtd"><svg t="1670053692749" class="icon" viewBox="0 0 1024 1024" version="1.1" xmlns="http://www.w3.org/2000/svg" p-id="2601" xmlns:xlink="http://www.w3.org/1999/xlink" width="200" height="200"><path d="M150.588235 0h722.82353c83.169882 0 150.588235 67.418353 150.588235 150.588235v722.82353c0 83.169882-67.418353 150.588235-150.588235 150.588235H150.588235C67.418353 1024 0 956.581647 0 873.411765V150.588235C0 67.418353 67.418353 0 150.588235 0z m650.360471 741.345882H231.062588a5.150118 5.150118 0 0 0-5.180235 5.12v10.270118c0 2.831059 2.319059 5.12 5.180235 5.12h243.365647L410.684235 813.176471h32.13553l63.759059-51.320471h19.184941L589.492706 813.176471h32.150588l-63.698823-51.320471h243.004235c2.861176 0 5.180235-2.288941 5.180235-5.12v-10.270118a5.150118 5.150118 0 0 0-5.180235-5.12z m-243.501177-500.675764h-31.081411V210.823529h-20.720942v29.846589h-31.081411v19.877647h82.883764v-19.877647z m227.960471 53.052235h-538.804706c-11.444706 0-20.720941 9.276235-20.720941 20.720941v373.007059c0 11.444706 9.276235 20.736 20.720941 20.736h538.804706c11.444706 0 20.720941-9.291294 20.720941-20.736v-373.007059c0-11.444706-9.276235-20.720941-20.720941-20.720941z" fill="#29AB91" p-id="2602"></path></svg>